<svg xmlns="http://www.w3.org/2000/svg" xmlns:xlink="http://www.w3.org/1999/xlink" width="1500" zoomAndPan="magnify" viewBox="0 0 1125 374.999991" height="500" preserveAspectRatio="xMidYMid meet" version="1.0"><defs><g/></defs><g fill="#ffffff" fill-opacity="1"><g transform="translate(37.500011, 228.349325)"><g><path d="M 61.09375 2 C 48.582031 2 38.503906 0.65625 30.859375 -2.03125 C 23.210938 -4.71875 17.390625 -8.410156 13.390625 -13.109375 C 9.398438 -17.816406 6.71875 -23.242188 5.34375 -29.390625 L 46.53125 -29.390625 C 49.570312 -25.003906 54.425781 -22.8125 61.09375 -22.8125 C 67.75 -22.8125 72.601562 -25.003906 75.65625 -29.390625 C 75.90625 -29.816406 76.03125 -30.203125 76.03125 -30.546875 C 76.03125 -31.703125 74.492188 -32.566406 71.421875 -33.140625 C 68.359375 -33.722656 63.773438 -34.164062 57.671875 -34.46875 C 49.984375 -34.8125 41.90625 -35.628906 33.4375 -36.921875 C 14.582031 -39.835938 5.15625 -47.421875 5.15625 -59.671875 C 5.15625 -60.703125 5.21875 -61.796875 5.34375 -62.953125 C 6.71875 -69.097656 9.398438 -74.519531 13.390625 -79.21875 C 17.390625 -83.925781 23.210938 -87.625 30.859375 -90.3125 C 38.503906 -93 48.582031 -94.34375 61.09375 -94.34375 C 73.59375 -94.34375 83.664062 -93 91.3125 -90.3125 C 98.957031 -87.625 104.773438 -83.925781 108.765625 -79.21875 C 112.765625 -74.519531 115.453125 -69.097656 116.828125 -62.953125 L 75.65625 -62.953125 C 72.601562 -67.335938 67.75 -69.53125 61.09375 -69.53125 C 54.425781 -69.53125 49.570312 -67.335938 46.53125 -62.953125 C 46.3125 -62.609375 46.203125 -62.285156 46.203125 -61.984375 C 46.203125 -60.953125 47.671875 -60.1875 50.609375 -59.6875 C 53.554688 -59.195312 57.894531 -58.78125 63.625 -58.4375 C 69.363281 -58.09375 75.472656 -57.535156 81.953125 -56.765625 C 88.441406 -55.992188 94.507812 -54.648438 100.15625 -52.734375 C 105.8125 -50.828125 110.226562 -48.003906 113.40625 -44.265625 C 115.894531 -41.390625 117.140625 -37.738281 117.140625 -33.3125 C 117.140625 -32.070312 117.035156 -30.765625 116.828125 -29.390625 C 115.453125 -23.242188 112.765625 -17.816406 108.765625 -13.109375 C 104.773438 -8.410156 98.957031 -4.71875 91.3125 -2.03125 C 83.664062 0.65625 73.59375 2 61.09375 2 Z M 61.09375 2 "/></g></g><g transform="translate(159.808654, 228.349325)"><g><path d="M 162.125 0 L 111.734375 0 L 72.046875 -30.9375 L 49.109375 -15.265625 L 49.109375 0 L 10.3125 0 L 10.3125 -92.46875 L 49.109375 -92.46875 L 49.109375 -49.6875 L 111.34375 -92.46875 L 162.125 -92.46875 L 95.890625 -47.234375 Z M 162.125 0 "/></g></g><g transform="translate(322.908324, 228.349325)"><g><path d="M 49.109375 0 L 10.3125 0 L 10.3125 -92.46875 L 49.109375 -92.46875 Z M 49.109375 0 "/></g></g><g transform="translate(382.322743, 228.349325)"><g><path d="M 147.5 0 L 101.359375 0 L 49.109375 -62.5625 L 49.109375 0 L 10.3125 0 L 10.3125 -92.46875 L 56.453125 -92.46875 L 108.703125 -30.21875 L 108.703125 -92.46875 L 147.5 -92.46875 Z M 147.5 0 "/></g></g><g transform="translate(540.138268, 228.349325)"><g><path d="M 118.25 0 L 10.3125 0 L 10.3125 -92.46875 L 49.109375 -92.46875 L 49.109375 -22.875 L 118.25 -22.875 Z M 118.25 0 "/></g></g><g transform="translate(660.964772, 228.349325)"><g><path d="M 155.296875 0 L 115.984375 0 L 107.28125 -15.140625 L 48.96875 -15.140625 L 40.28125 0 L 0.96875 0 L 60.125 -92.40625 L 96.140625 -92.40625 Z M 94.203125 -38.015625 L 78.15625 -66.046875 L 62.046875 -38.015625 Z M 94.203125 -38.015625 "/></g></g><g transform="translate(817.233717, 228.349325)"><g><path d="M 76.609375 0 L 10.3125 0 L 10.3125 -92.40625 L 78.03125 -92.40625 C 90.0625 -92.40625 99.960938 -91.859375 107.734375 -90.765625 C 115.515625 -89.671875 121.507812 -87.953125 125.71875 -85.609375 C 129.925781 -83.265625 132.78125 -80.285156 134.28125 -76.671875 C 135.789062 -73.066406 136.546875 -68.753906 136.546875 -63.734375 C 136.410156 -59.773438 135.320312 -56.492188 133.28125 -53.890625 C 131.25 -51.296875 128.867188 -49.363281 126.140625 -48.09375 C 123.410156 -46.832031 121.015625 -46.203125 118.953125 -46.203125 C 120.972656 -46.203125 123.332031 -45.800781 126.03125 -45 C 128.738281 -44.207031 131.367188 -43.0625 133.921875 -41.5625 C 136.484375 -40.0625 138.613281 -38.234375 140.3125 -36.078125 C 142.007812 -33.929688 142.859375 -31.484375 142.859375 -28.734375 C 142.859375 -25.128906 142.4375 -21.820312 141.59375 -18.8125 C 140.757812 -15.8125 139.085938 -13.148438 136.578125 -10.828125 C 134.066406 -8.503906 130.359375 -6.535156 125.453125 -4.921875 C 120.554688 -3.316406 114.144531 -2.09375 106.21875 -1.25 C 98.300781 -0.414062 88.429688 0 76.609375 0 Z M 74.421875 -54.125 C 80.097656 -54.125 84.492188 -54.398438 87.609375 -54.953125 C 90.722656 -55.515625 92.878906 -56.363281 94.078125 -57.5 C 95.285156 -58.644531 95.890625 -60.097656 95.890625 -61.859375 C 95.890625 -63.660156 95.285156 -65.128906 94.078125 -66.265625 C 92.878906 -67.410156 90.722656 -68.25 87.609375 -68.78125 C 84.492188 -69.320312 80.097656 -69.59375 74.421875 -69.59375 L 49.109375 -69.59375 L 49.109375 -54.125 Z M 74.421875 -22.8125 C 80.222656 -22.8125 84.925781 -22.960938 88.53125 -23.265625 C 92.144531 -23.566406 94.789062 -24.253906 96.46875 -25.328125 C 98.144531 -26.398438 98.984375 -28.140625 98.984375 -30.546875 C 98.984375 -32.953125 98.144531 -34.703125 96.46875 -35.796875 C 94.789062 -36.890625 92.144531 -37.578125 88.53125 -37.859375 C 84.925781 -38.140625 80.222656 -38.28125 74.421875 -38.28125 L 49.109375 -38.28125 L 49.109375 -22.8125 Z M 74.421875 -22.8125 "/></g></g><g transform="translate(965.25424, 228.349325)"><g><path d="M 61.09375 2 C 48.582031 2 38.503906 0.65625 30.859375 -2.03125 C 23.210938 -4.71875 17.390625 -8.410156 13.390625 -13.109375 C 9.398438 -17.816406 6.71875 -23.242188 5.34375 -29.390625 L 46.53125 -29.390625 C 49.570312 -25.003906 54.425781 -22.8125 61.09375 -22.8125 C 67.75 -22.8125 72.601562 -25.003906 75.65625 -29.390625 C 75.90625 -29.816406 76.03125 -30.203125 76.03125 -30.546875 C 76.03125 -31.703125 74.492188 -32.566406 71.421875 -33.140625 C 68.359375 -33.722656 63.773438 -34.164062 57.671875 -34.46875 C 49.984375 -34.8125 41.90625 -35.628906 33.4375 -36.921875 C 14.582031 -39.835938 5.15625 -47.421875 5.15625 -59.671875 C 5.15625 -60.703125 5.21875 -61.796875 5.34375 -62.953125 C 6.71875 -69.097656 9.398438 -74.519531 13.390625 -79.21875 C 17.390625 -83.925781 23.210938 -87.625 30.859375 -90.3125 C 38.503906 -93 48.582031 -94.34375 61.09375 -94.34375 C 73.59375 -94.34375 83.664062 -93 91.3125 -90.3125 C 98.957031 -87.625 104.773438 -83.925781 108.765625 -79.21875 C 112.765625 -74.519531 115.453125 -69.097656 116.828125 -62.953125 L 75.65625 -62.953125 C 72.601562 -67.335938 67.75 -69.53125 61.09375 -69.53125 C 54.425781 -69.53125 49.570312 -67.335938 46.53125 -62.953125 C 46.3125 -62.609375 46.203125 -62.285156 46.203125 -61.984375 C 46.203125 -60.953125 47.671875 -60.1875 50.609375 -59.6875 C 53.554688 -59.195312 57.894531 -58.78125 63.625 -58.4375 C 69.363281 -58.09375 75.472656 -57.535156 81.953125 -56.765625 C 88.441406 -55.992188 94.507812 -54.648438 100.15625 -52.734375 C 105.8125 -50.828125 110.226562 -48.003906 113.40625 -44.265625 C 115.894531 -41.390625 117.140625 -37.738281 117.140625 -33.3125 C 117.140625 -32.070312 117.035156 -30.765625 116.828125 -29.390625 C 115.453125 -23.242188 112.765625 -17.816406 108.765625 -13.109375 C 104.773438 -8.410156 98.957031 -4.71875 91.3125 -2.03125 C 83.664062 0.65625 73.59375 2 61.09375 2 Z M 61.09375 2 "/></g></g></g></svg>